<svg xmlns="http://www.w3.org/2000/svg" viewBox="9.3 2.5 47 58">
  <path fill="#d19a66" d="M17 9.8Q17 9.8 18.5 7.8Q20 5.8 24.2 4.6Q28.4 3.5 29.6 6.2Q30.8 8.9 30.4 11.5Q30 14.1 29.4 17.2Q28.8 20.2 25.1 36.6Q21.5 53 21.2 53.8Q20.8 54.7 20.2 55.4Q19.6 56.1 18.9 56.6Q18.1 57 17.2 57.2Q16.3 57.4 15.4 57.4Q14.5 57.3 13.6 56.9Q12.8 56.5 12.1 55.9Q11.5 55.2 11 54.4Q10.6 53.6 10.4 52.7Q10.3 51.8 11.2 47.6Q12 43.3 15.3 31.2Q18.6 19.2 19.7 16.1Q20.7 13.1 22.5 11.3Q24.4 9.5 22.4 11.5Q20.5 13.5 19.9 13.8Q19.4 14 18.7 14Q18.1 13.9 17.6 13.6Q17.1 13.2 16.9 13Q16.7 12.7 16.6 12.1Q16.4 11.5 16.4 11.2Q16.4 10.9 16.7 10.3Q17 9.8 17 9.8ZM16.1 41.5Q16.1 41.5 16.9 39.3Q17.7 37 19 34.7Q20.3 32.3 22 30.3Q23.7 28.2 25.7 26.4Q27.8 24.6 30.3 23.4Q32.7 22.1 35.4 21.5Q38 21 40.7 21Q43.3 21.1 45.9 22Q48.5 22.9 50.7 25Q52.8 27.2 54 30Q55.1 32.9 55.2 36Q55.3 39.1 54.4 42Q53.5 44.9 51.7 47.6Q50 50.3 47.6 52.4Q45.2 54.6 42.4 56.1Q39.6 57.6 36.7 58.4Q33.8 59.2 30.9 59.3Q28.1 59.5 25.5 59.3Q22.9 59.2 20.4 58.7Q17.9 58.2 15.9 57.6Q14 57 13.2 56.6Q12.4 56.1 11.8 55.4Q11.2 54.8 10.9 53.9Q10.5 53.1 10.5 52.2Q10.4 51.3 10.6 50.4Q10.8 49.6 11.3 48.8Q11.8 48.1 12.5 47.5Q13.2 46.9 14.1 46.6Q14.9 46.3 15.8 46.3Q16.7 46.3 19.4 47.4Q22.2 48.4 25.1 49.1Q28.1 49.7 30.9 49.1Q33.8 48.5 36.3 46.8Q38.7 45 40.3 42.6Q41.8 40.1 42.8 37.6Q43.7 35 43.8 32.2Q43.8 29.3 41.7 27.8Q39.5 26.4 37 26.4Q34.4 26.5 31.8 27.8Q29.2 29.2 26.9 31.3Q24.7 33.4 23 35.9Q21.4 38.4 20.5 40.7Q19.7 42.9 19.2 43.4Q18.8 43.9 18.1 44Q17.4 44.1 17 43.9Q16.6 43.7 16.4 43.3Q16.1 42.9 16.1 42.2Q16.1 41.5 16.1 41.5Z"/>
</svg>
